<svg xmlns="http://www.w3.org/2000/svg" viewBox="0 0 1600 1000" preserveAspectRatio="xMidYMid slice">
  <g fill="#e8976c">
    <circle cx="120" cy="80" r="1.2" opacity="0.5"/>
    <circle cx="280" cy="140" r="1" opacity="0.4"/>
    <circle cx="450" cy="60" r="1.5" opacity="0.55"/>
    <circle cx="620" cy="180" r="1" opacity="0.4"/>
    <circle cx="800" cy="100" r="1.3" opacity="0.5"/>
    <circle cx="960" cy="200" r="1" opacity="0.45"/>
    <circle cx="1120" cy="80" r="1.2" opacity="0.5"/>
    <circle cx="1280" cy="170" r="1.4" opacity="0.5"/>
    <circle cx="1450" cy="110" r="1" opacity="0.4"/>

    <circle cx="180" cy="280" r="1" opacity="0.4"/>
    <circle cx="380" cy="340" r="1.3" opacity="0.5"/>
    <circle cx="560" cy="260" r="1" opacity="0.4"/>
    <circle cx="740" cy="320" r="1.5" opacity="0.55"/>
    <circle cx="900" cy="290" r="1" opacity="0.4"/>
    <circle cx="1080" cy="350" r="1.2" opacity="0.5"/>
    <circle cx="1240" cy="280" r="1" opacity="0.4"/>
    <circle cx="1410" cy="360" r="1.3" opacity="0.5"/>

    <circle cx="100" cy="460" r="1.2" opacity="0.5"/>
    <circle cx="260" cy="490" r="1" opacity="0.4"/>
    <circle cx="420" cy="430" r="1.5" opacity="0.55"/>
    <circle cx="580" cy="520" r="1" opacity="0.4"/>
    <circle cx="760" cy="470" r="1.2" opacity="0.5"/>
    <circle cx="940" cy="490" r="1" opacity="0.4"/>
    <circle cx="1100" cy="450" r="1.3" opacity="0.5"/>
    <circle cx="1260" cy="530" r="1" opacity="0.4"/>
    <circle cx="1430" cy="470" r="1.4" opacity="0.5"/>

    <circle cx="160" cy="660" r="1" opacity="0.4"/>
    <circle cx="320" cy="690" r="1.3" opacity="0.5"/>
    <circle cx="500" cy="620" r="1" opacity="0.4"/>
    <circle cx="660" cy="710" r="1.5" opacity="0.55"/>
    <circle cx="840" cy="670" r="1" opacity="0.4"/>
    <circle cx="1020" cy="700" r="1.2" opacity="0.5"/>
    <circle cx="1200" cy="650" r="1" opacity="0.4"/>
    <circle cx="1370" cy="710" r="1.3" opacity="0.5"/>

    <circle cx="140" cy="830" r="1.2" opacity="0.5"/>
    <circle cx="320" cy="890" r="1" opacity="0.4"/>
    <circle cx="480" cy="840" r="1.3" opacity="0.5"/>
    <circle cx="660" cy="910" r="1" opacity="0.4"/>
    <circle cx="840" cy="860" r="1.5" opacity="0.55"/>
    <circle cx="1040" cy="880" r="1" opacity="0.4"/>
    <circle cx="1240" cy="840" r="1.2" opacity="0.5"/>
    <circle cx="1420" cy="900" r="1" opacity="0.4"/>
  </g>

  <g stroke="#e8976c" stroke-width="0.5" opacity="0.18" fill="none">
    <line x1="120" y1="80"   x2="280" y2="140"/>
    <line x1="280" y1="140"  x2="450" y2="60"/>
    <line x1="620" y1="180"  x2="800" y2="100"/>
    <line x1="960" y1="200"  x2="1120" y2="80"/>
    <line x1="1120" y1="80"  x2="1280" y2="170"/>

    <line x1="180" y1="280"  x2="380" y2="340"/>
    <line x1="560" y1="260"  x2="740" y2="320"/>
    <line x1="900" y1="290"  x2="1080" y2="350"/>
    <line x1="1240" y1="280" x2="1410" y2="360"/>

    <line x1="260" y1="490"  x2="420" y2="430"/>
    <line x1="580" y1="520"  x2="760" y2="470"/>
    <line x1="940" y1="490"  x2="1100" y2="450"/>
    <line x1="1100" y1="450" x2="1260" y2="530"/>

    <line x1="320" y1="690"  x2="500" y2="620"/>
    <line x1="660" y1="710"  x2="840" y2="670"/>
    <line x1="1020" y1="700" x2="1200" y2="650"/>

    <line x1="320" y1="890"  x2="480" y2="840"/>
    <line x1="660" y1="910"  x2="840" y2="860"/>
    <line x1="1040" y1="880" x2="1240" y2="840"/>
  </g>
</svg>
